<svg xmlns="http://www.w3.org/2000/svg" xmlns:xlink="http://www.w3.org/1999/xlink" xmlns:svgjs="http://svgjs.dev/svgjs" version="1.1" width="1000" height="1000" viewBox="0 0 1000 1000"><rect width="1000" height="1000" fill="#ffffff"/><g transform="matrix(0.7,0,0,0.7,149.57575757575756,282.1265587044535)"><svg xmlns="http://www.w3.org/2000/svg" xmlns:xlink="http://www.w3.org/1999/xlink" viewBox="0 0 396 247" data-background-color="#010c80" preserveAspectRatio="xMidYMid meet" height="623" width="1000"><g id="tight-bounds" transform="matrix(1,0,0,1,0.2400000000000091,-0.09999999999999432)"><svg viewBox="0 0 395.52 247.2" height="247.2" width="395.52"><g><svg/></g><g><svg viewBox="0 0 395.52 247.2" height="247.2" width="395.52"><g transform="matrix(1,0,0,1,125.04968746355685,47.215199999999996)"><svg viewBox="0 0 145.42062507288628 152.7696" height="152.7696" width="145.42062507288628"><g><svg viewBox="0 0 145.42062507288628 152.7696" height="152.7696" width="145.42062507288628"><g><svg viewBox="0 0 145.42062507288628 152.7696" height="152.7696" width="145.42062507288628"><g><svg viewBox="0 0 145.42062507288628 152.7696" height="152.7696" width="145.42062507288628"><g><svg viewBox="0 0 145.42062507288628 152.7696" height="152.7696" width="145.42062507288628"><g><svg viewBox="0 0 145.42062507288628 152.7696" height="152.7696" width="145.42062507288628"><g transform="matrix(1,0,0,1,0,0)"><svg width="145.42062507288628" viewBox="0.3500000238418579 -34.29999923706055 32.650001525878906 34.29999923706055" height="152.7696" data-palette-color="#77d4fc"><path d="M0.35 0L13.65-34.3 19.7-34.3 33 0 27.95 0 24.5-9.15 8.6-9.15 5.25 0 0.35 0ZM10.15-13.3L22.95-13.3 18.95-24 16.65-30.2 16.4-30.2 14.15-24.1 10.15-13.3Z" opacity="1" transform="matrix(1,0,0,1,0,0)" fill="#000000" class="undefined-text-0" data-fill-palette-color="primary" id="text-0"/></svg></g></svg></g></svg></g></svg></g></svg></g></svg></g></svg></g><g><path d="M196.31 0c30.402 0 58.24 10.976 79.769 29.183l-11.148 0c-19.26-14.022-42.974-22.294-68.621-22.295-25.647 0-49.361 8.272-68.621 22.295l-11.147 0c21.528-18.206 49.366-29.183 79.768-29.183zM196.31 247.2c-30.402 0-58.24-10.976-79.768-29.183h11.147c19.26 14.022 42.974 22.294 68.621 22.295 25.647 0 49.361-8.272 68.621-22.295h11.148c-21.528 18.206-49.366 29.183-79.769 29.183z" fill="#77d4fc" stroke="transparent" data-fill-palette-color="tertiary"/></g></svg></g><defs/></svg><rect width="395.52" height="247.2" fill="none" stroke="none" visibility="hidden"/></g></svg></g></svg>